<?xml version="1.0" encoding="utf-8"?>
<!-- Generator: Adobe Illustrator 19.1.0, SVG Export Plug-In . SVG Version: 6.00 Build 0)  -->
<svg version="1.1" id="Layer_1" xmlns="http://www.w3.org/2000/svg" xmlns:xlink="http://www.w3.org/1999/xlink" x="0px" y="0px"
	 viewBox="0 0 317 317" style="enable-background:new 0 0 317 317;" xml:space="preserve">
<style type="text/css">
	.st0{stroke:#FFFFFF;stroke-miterlimit:10;}
	.st1{fill:#FFFFFF;stroke:#000000;stroke-miterlimit:10;}
</style>
<path class="st0" d="M116.9,314.8c-0.2,0.4-0.5,0.7-0.8,1C116.4,315.5,116.7,315.2,116.9,314.8z"/>
<path class="st0" d="M202.2,316.7c-1.8-0.9-2.8-3.2-3.2-6.9C199.4,313.3,200.4,315.6,202.2,316.7z"/>
<path class="st0" d="M115.8,316.2c-0.3,0.3-0.7,0.6-1,0.8c-2.1,1.3-5,1.4-8.3,0c-0.1,0-0.1,0-0.2-0.1h8.5
	C115.2,316.7,115.5,316.4,115.8,316.2z"/>
<g>
	<rect x="23.1" y="49.9" class="st1" width="263.5" height="267"/>
	<path class="st0" d="M188.1,236.9c8-1.8,14.2-3.1,20.7-4.9c-6.5,1.8-13.1,2.9-20.3,4.9L188.1,236.9L188.1,236.9z"/>
	<path class="st0" d="M220,228.4c-1.5,0.6-2.9,1.1-4.5,1.7c-0.5,0.2-1.1,0.3-1.6,0.5c0.5-0.2,1.1-0.4,1.6-0.5
		C217.1,229.6,218.6,229,220,228.4z"/>
	<path class="st0" d="M228,224.6c-1.5,0.8-3.1,1.7-4.7,2.4C224.9,226.3,226.5,225.5,228,224.6z"/>
	<path class="st0" d="M317.1,12v293c0,6.6-5.6,11.9-12.2,11.9H202.6c-0.2,0-0.3-0.1-0.4-0.2c-1.8-1.1-2.8-3.4-3.2-6.9
		c-0.2-1.7-0.3-3.7-0.3-6.1c0-9.7,0-19.4,0-29.1c0-8.4-0.1-16.8-2.5-24.5c-0.2-0.8-0.5-1.6-0.8-2.3c-0.3-0.8-0.6-1.5-1-2.3
		c-0.3-0.8-0.7-1.5-1.1-2.2c-0.2-0.4-0.4-0.7-0.6-1.1c-0.4-0.7-0.9-1.4-1.4-2.1c-0.5-0.7-1.1-1.4-1.6-2.1c-0.2-0.2-0.3-0.3-0.5-0.5
		c-0.1-0.1-0.1-0.2-0.2-0.2c-0.1-0.1-0.1-0.2-0.2-0.3c7.1-1.8,14-3.1,20.5-4.9c0.5-0.2,1.1-0.3,1.6-0.5c1.1-0.3,2.2-0.6,3.2-1
		c0.5-0.2,1.1-0.3,1.6-0.5c1.5-0.5,3-1.1,4.5-1.7c0.5-0.2,1-0.4,1.4-0.6c0.6-0.3,1.2-0.5,1.9-0.8c1.6-0.8,3.2-1.6,4.7-2.4
		c0.8-0.4,1.5-0.8,2.2-1.3c0.7-0.4,1.4-0.9,2.1-1.4c0.7-0.5,1.4-0.9,2-1.4c0.7-0.5,1.3-1,2-1.5c14.7-11.7,21.9-29,23.9-50.1
		c1.7-19.1-0.9-37.1-13.9-52.4c-1.2-1.4-1.6-4.6-0.9-6.5c4-11.2,2-22.1-0.9-33.1c-1.5-5.8-5.1-7.4-9.8-5.6
		c-10.7,4.2-21,9.2-31.6,13.4c-3.1,1.2-6.9,2.2-10,1.5c-23.2-5.1-46.2-5.1-69.3,0c-3.1,0.7-6.9-0.3-10-1.6
		c-10.4-4.2-20.5-9.1-30.9-13.2c-5.3-2.1-9.2-0.7-10.8,6C69.4,88.4,67.6,99,71.3,110c0.7,2.2-0.3,5.7-1.7,7.7
		c-33.9,46.9-5.6,110.7,52.2,117.5c1.8,0.2,3.6,0.4,5.2,0.6c-2.7,6.9-5.2,13.6-8,20.2c-0.4,1-1.7,2.1-2.8,2.5
		c-13.6,4.8-28.6,5.7-39.8-8.5c-4.7-5.9-9.3-12.1-15.1-16.8c-5.6-4.6-12.6-7.6-21.8-3c2.9,3,5.4,5.3,7.5,7.9
		c5.2,6.1,12,11.6,14.9,18.6c9.4,22.6,23.9,24.6,43.3,24.9c3.9,0,7.8-0.6,13-1c0,10.2,0.4,20.1-0.1,29.9c0,0.6-0.1,1.1-0.2,1.6
		c0,0.2-0.1,0.4-0.1,0.5c-0.2,0.7-0.4,1.3-0.7,1.8c-0.1,0.1-0.1,0.3-0.2,0.4c-0.2,0.4-0.5,0.7-0.8,1c-0.1,0.1-0.2,0.2-0.3,0.3
		c-0.3,0.3-0.7,0.5-1,0.7H12c-6.6,0-11.9-5.3-11.9-11.9V12C0.1,5.4,5.4-0.1,12-0.1h293C311.6-0.1,317.1,5.4,317.1,12z"/>
	<path class="st0" d="M188.8,237.2c-0.1-0.1-0.2-0.2-0.2-0.3h0C188.7,237,188.7,237.1,188.8,237.2z"/>
</g>
<path class="st0" d="M210.6,316.9c-0.1,0-0.2,0.1-0.3,0.1c-3.4,0.9-5.9,0.9-7.7,0c-0.2-0.1-0.3-0.2-0.4-0.3c0.1,0.1,0.3,0.1,0.4,0.2
	H210.6z"/>
</svg>
