<?xml version="1.0" encoding="utf-8"?>
<!-- Generator: Adobe Illustrator 19.1.0, SVG Export Plug-In . SVG Version: 6.00 Build 0)  -->
<svg version="1.1" id="Layer_1" xmlns="http://www.w3.org/2000/svg" xmlns:xlink="http://www.w3.org/1999/xlink" x="0px" y="0px"
	 viewBox="0 0 317 317" style="enable-background:new 0 0 317 317;" xml:space="preserve">
<style type="text/css">
	.st0{fill:#FFFFFF;stroke:#000000;stroke-miterlimit:10;}
</style>
<path d="M305,317H12c-6.6,0-12-5.4-12-12V12C0,5.4,5.4,0,12,0h293c6.6,0,12,5.4,12,12v293C317,311.6,311.6,317,305,317z"/>
<path class="st0" d="M282.6,98H228c-2.3,0-4.2-1.9-4.2-4.2V39.2c0-2.3,1.9-4.2,4.2-4.2h54.6c2.3,0,4.2,1.9,4.2,4.2v54.6
	C286.8,96.1,284.9,98,282.6,98z"/>
<circle class="st0" cx="162" cy="159.4" r="61.2"/>
<path class="st0" d="M38.1,135.9h30.6c0,0-19.1,42.8,23.2,91.7c0,0,24.9,29.7,70.1,29.7c0,0,40.7,1.2,70.9-30.4c0,0,38.1-35,22.4-91
	h32.3l-0.8,132.4c0,0-1,15.2-20.7,14.8l-207.7,0.3c0,0-20.3,2-20.3-18.7S38.1,135.9,38.1,135.9z"/>
</svg>
