<?xml version="1.0" encoding="utf-8"?>
<!-- Generator: Adobe Illustrator 19.1.0, SVG Export Plug-In . SVG Version: 6.00 Build 0)  -->
<svg version="1.1" id="Layer_1" xmlns="http://www.w3.org/2000/svg" xmlns:xlink="http://www.w3.org/1999/xlink" x="0px" y="0px"
	 viewBox="0 0 317 317" style="enable-background:new 0 0 317 317;" xml:space="preserve">
<style type="text/css">
	.st0{fill:#5FC8D7;}
</style>
<path d="M305,317H12c-6.6,0-12-5.4-12-12V12C0,5.4,5.4,0,12,0h293c6.6,0,12,5.4,12,12v293C317,311.6,311.6,317,305,317z"/>
<path class="st0" d="M282.6,98H228c-2.3,0-4.2-1.9-4.2-4.2V39.2c0-2.3,1.9-4.2,4.2-4.2h54.6c2.3,0,4.2,1.9,4.2,4.2v54.6
	C286.8,96.1,284.9,98,282.6,98z"/>
<circle class="st0" cx="162" cy="159.4" r="61.2"/>
<path class="st0" d="M38.6,135.4h30.1c0,0-19.1,43.1,23.2,92c0,0,24.9,29.8,70.1,29.8c0,0,40.7,1,70.9-30.6c0,0,38.1-35.2,22.4-91.2
	h32.3L286.8,268c0,0-1,15.4-20.7,14.9l-207.4,0.4c0,0-20,2.1-20-18.7S38.6,135.4,38.6,135.4z"/>
</svg>
