<?xml version="1.0" encoding="utf-8"?>
<!-- Generator: Adobe Illustrator 19.1.0, SVG Export Plug-In . SVG Version: 6.00 Build 0)  -->
<svg version="1.1" id="Layer_1" xmlns="http://www.w3.org/2000/svg" xmlns:xlink="http://www.w3.org/1999/xlink" x="0px" y="0px"
	 viewBox="0 0 317 317" style="enable-background:new 0 0 317 317;" xml:space="preserve">
<style type="text/css">
	.st0{fill:#727272;}
	.st1{fill:#FFFFFF;}
</style>
<path class="st0" d="M305,317H12c-6.6,0-12-5.4-12-12V12C0,5.4,5.4,0,12,0h293c6.6,0,12,5.4,12,12v293C317,311.6,311.6,317,305,317z
	"/>
<path class="st1" d="M18.6,131.4h33.8c0,0-23.3,47.2,22.2,99.8c0,0,20.5,29.4,78,30c0,0,43.8,1.6,76.2-32.3c0,0,41-37.4,24.1-97.4
	h34.7l-0.9,141.7c0,0-1.1,16.1-22.3,15.6l-223.6,0.2c0,0-22.3,2-22.3-20.2S18.6,131.4,18.6,131.4z"/>
<path class="st1" d="M282.6,98H228c-2.3,0-4.2-1.9-4.2-4.2V39.2c0-2.3,1.9-4.2,4.2-4.2h54.6c2.3,0,4.2,1.9,4.2,4.2v54.6
	C286.8,96.1,284.9,98,282.6,98z"/>
<circle class="st1" cx="151.4" cy="158.8" r="74.6"/>
</svg>
