<?xml version="1.0" encoding="utf-8"?>
<!-- Generator: Adobe Illustrator 19.1.0, SVG Export Plug-In . SVG Version: 6.00 Build 0)  -->
<svg version="1.1" id="Layer_1" xmlns="http://www.w3.org/2000/svg" xmlns:xlink="http://www.w3.org/1999/xlink" x="0px" y="0px"
	 viewBox="0 0 193.6 193.6" style="enable-background:new 0 0 193.6 193.6;" xml:space="preserve">
<style type="text/css">
	.st0{fill:#FFFFFF;}
	.st1{fill:#5FC8D7;}
</style>
<g>
	<path class="st0" d="M193.1,97.1c0,43.4-28.6,80.2-68,92.4c-6.8,2.1-13.9,3.5-21.2,4.1c-2.5,0.2-5,0.3-7.5,0.3
		c-24.4,0-46.7-9-63.7-24c-1.8-1.6-3.6-3.3-5.3-5c-1.1-1.2-2.3-2.4-3.3-3.6c-1.6-1.8-3.2-3.7-4.7-5.7C6.8,139.4-0.5,119.1-0.5,97.1
		c0-27.4,11.4-52.1,29.6-69.7c1.3-1.2,2.6-2.5,4-3.6c0,0,0,0,0,0c17-14.6,39-23.4,63.1-23.4c23.7,0,45.4,8.5,62.3,22.7
		c0.1,0.1,0.3,0.2,0.4,0.4c1.3,1.1,2.7,2.3,4,3.6l0,0C181.5,44.6,193.1,69.5,193.1,97.1z"/>
	<path class="st1" d="M96.5,36.1v4.2c-10,0-17.9-0.5-24-1.4c-3.1,15-7.3,33.9-12.8,56.7c-5.5,22.8-9.3,37.3-11.3,43.6
		c-2.1,6.3-4.9,12.8-8.5,19.5c-2.3,4.2-4.7,8-7.3,11.2c-1.8-1.6-3.6-3.3-5.3-5c-1.1-1.2-2.2-2.4-3.3-3.6c-1.6-1.8-3.2-3.7-4.7-5.7
		c2.2-6.2,4.4-13.6,6.5-22.2C30.5,114,38.6,80.6,50.2,33.3c-6.7-2.9-13.7-4.8-21-5.9c1.3-1.2,2.6-2.5,4-3.6c0,0,0,0,0,0
		c5.5,1,11,2.5,16.9,4.5C64.3,33.5,79.5,36.1,96.5,36.1z"/>
	<path class="st1" d="M163,27C163,27,163,27,163,27c-0.8,7.3-3.6,16.5-8.3,28c-5.7,13.9-8.5,23.7-8.5,29.7h-4.4
		c0-6,0.9-11.4,2.8-16.3c1.9-4.9,3.7-9.4,5.5-13.6c1.8-4.2,3.1-7.4,3.9-9.7c-21.2,1.2-42.6,15.9-64.2,44.1
		c-4.8,5.9-9.2,11.7-13.3,17.3c12.7,26.5,22.1,45.3,28.1,56.2c6,10.9,11,18.5,15,22.6c1.8,1.8,3.6,3.3,5.5,4.3
		c-6.8,2.1-13.9,3.5-21.2,4.1c-1.9-0.9-3.7-2-5.4-3.2c-6.8-5-12.7-12.6-17.5-22.8l-22.1-46.7l28.8-37.4c9.8-12.7,20.1-23,31.1-30.9
		c10.9-7.8,23.4-12,37.1-12.4c1.9-5.8,3.2-11.5,3.2-16.9C160.3,24.5,161.7,25.7,163,27L163,27z"/>
</g>
</svg>
