<?xml version="1.0" encoding="utf-8"?>
<!-- Generator: Adobe Illustrator 19.1.0, SVG Export Plug-In . SVG Version: 6.00 Build 0)  -->
<svg version="1.1" id="Layer_1" xmlns="http://www.w3.org/2000/svg" xmlns:xlink="http://www.w3.org/1999/xlink" x="0px" y="0px"
	 viewBox="0 0 317 317" style="enable-background:new 0 0 317 317;" xml:space="preserve">
<style type="text/css">
	.st0{fill:#727272;}
	.st1{fill:#FFFFFF;}
</style>
<path class="st0" d="M305,317H12c-6.6,0-12-5.4-12-12V12C0,5.4,5.4,0,12,0h293c6.6,0,12,5.4,12,12v293C317,311.6,311.6,317,305,317z
	"/>
<path class="st1" d="M155.1,126.6c0,0-7.3-50.4,35.8-68.3c0,0,28.6-14.5,66.4,13.6c0,0,19.4,1.9,37.3-13.6c0,0,0.5,15-22.8,30
	c0,0,17.9,0,32-7.3c0,0-17.9,25.7-30.5,30.5c0,0-5.3,261.6-260.1,151.1c0,0,57.2,4.8,88.2-27.1c0,0-41.7,3.9-55.2-38.8l26.2-1.9
	c0,0-46.5-4.8-47.5-58.1l27.1,7.8c0,0-41.7-32.9-19.4-80.4C32.5,64.1,77.1,124.2,155.1,126.6z"/>
</svg>
